# xmcd
#
# Track frame offsets: 
#        150
#        15349
#        31133
#        55848
#        73546
#        90553
#        106224
#        122000
#        141334
#        168389
#        182722
#        195067
#        214966
#        237594
#        253682
#        269021
#        288749
#        302678
#        319112
#
# Disc length: 4419 seconds
#
# Revision: 0
# Processed by: cddbd v1.5.2PL0 Copyright (c) Steve Scherf et al.
# Submitted via: ExactAudioCopy v0.95b4
#
DISCID=11114113
DTITLE=Various Artist - Los Fabulosos 70's
DYEAR=2000
DGENRE=Rock
TTITLE0=Walter Egan - Magnet and Steel
TTITLE1=John Paul Young - Love is in the air
TTITLE2=Jesse Green - Nice and slow 
TTITLE3=B.T.O. - Roll On Down The Highway
TTITLE4=Stories - Brother Louie
TTITLE5=Paper Lace - The Night Chicago Died
TTITLE6=Suzi Quatro and Chris Norman - Stumblin' In
TTITLE7=Santana - Oye como va
TTITLE8=Shocking Blue - Demon Lover
TTITLE9=Tina Charles - Dance Little Lady Dance
TTITLE10=Queen - Crazy little thing Called Love
TTITLE11=The Players - This Time I'm In It For Love
TTITLE12=10 CC - Dreadlock holiday
TTITLE13=Biddu - Girl, You'll Be a Woman Soon
TTITLE14=Gary Glitter - I Didn't Know I Loved You 
TTITLE15=Jane Birkin - Je t'aime... moi non plus
TTITLE16=KC And The Sunshine Band - That's the Way (I Like It)
TTITLE17=Cliff Richard - Devil Woman
TTITLE18=Helen Reddy - You Are My World
EXTD=
EXTT0=
EXTT1=
EXTT2=
EXTT3=
EXTT4=
EXTT5=
EXTT6=
EXTT7=
EXTT8=
EXTT9=
EXTT10=
EXTT11=
EXTT12=
EXTT13=
EXTT14=
EXTT15=
EXTT16=
EXTT17=
EXTT18=
PLAYORDER=
